<mxfile host="app.diagrams.net" modified="2024-04-20T16:05:37.936Z" agent="Mozilla/5.0 (Windows NT 10.0; Win64; x64) AppleWebKit/537.36 (KHTML, like Gecko) Chrome/124.0.0.0 Safari/537.36" etag="o6LHU_9D1T2dNpNKWgMG" version="24.2.7" type="device">
  <diagram name="Страница — 1" id="bERqnaUpnix3Bu8-cO2g">
    <mxGraphModel dx="956" dy="529" grid="1" gridSize="10" guides="1" tooltips="1" connect="1" arrows="1" fold="1" page="1" pageScale="1" pageWidth="827" pageHeight="1169" background="#FFFFFF" math="0" shadow="0">
      <root>
        <mxCell id="0" />
        <mxCell id="1" parent="0" />
        <mxCell id="8Muu9q0Q0DCxU8LPVgdl-43" value="&lt;p style=&quot;margin: 4px 0px 0px; text-align: center; font-size: 8px;&quot;&gt;&lt;b style=&quot;font-size: 8px;&quot;&gt;SmartHouse&lt;/b&gt;&lt;/p&gt;&lt;hr style=&quot;border-style: solid; font-size: 8px;&quot;&gt;&lt;p style=&quot;margin: 0px 0px 0px 4px; font-size: 8px;&quot;&gt;&lt;font style=&quot;font-size: 8px;&quot;&gt;- name: string&lt;/font&gt;&lt;/p&gt;&lt;p style=&quot;margin: 0px 0px 0px 4px; font-size: 8px;&quot;&gt;&lt;font style=&quot;font-size: 8px;&quot;&gt;- devices: Device[]&lt;/font&gt;&lt;/p&gt;&lt;p style=&quot;margin: 0px 0px 0px 4px; font-size: 8px;&quot;&gt;&lt;font style=&quot;font-size: 8px;&quot;&gt;- isOpen: boolean&lt;/font&gt;&lt;/p&gt;&lt;hr style=&quot;border-style: solid; font-size: 8px;&quot;&gt;&lt;p style=&quot;margin: 0px 0px 0px 4px; font-size: 8px;&quot;&gt;+ SmartHouse(name: string)&lt;/p&gt;&lt;p style=&quot;margin: 0px 0px 0px 4px; font-size: 8px;&quot;&gt;+ addDevice(name: string)&lt;/p&gt;&lt;p style=&quot;margin: 0px 0px 0px 4px; font-size: 8px;&quot;&gt;+ deleteDevice(name: string)&lt;/p&gt;&lt;p style=&quot;margin: 0px 0px 0px 4px; font-size: 8px;&quot;&gt;+ getDevices(): Device[]&lt;/p&gt;&lt;p style=&quot;margin: 0px 0px 0px 4px; font-size: 8px;&quot;&gt;+ closeDoors(): void&lt;/p&gt;&lt;p style=&quot;margin: 0px 0px 0px 4px; font-size: 8px;&quot;&gt;+ openDoors(): void&lt;/p&gt;&lt;p style=&quot;margin: 0px 0px 0px 4px; font-size: 8px;&quot;&gt;+ getDeviceByName(name: string)&lt;/p&gt;&lt;p style=&quot;margin: 0px 0px 0px 4px; font-size: 8px;&quot;&gt;+ offAllDevices(): void&lt;/p&gt;&lt;p style=&quot;margin: 0px 0px 0px 4px; font-size: 8px;&quot;&gt;&lt;br&gt;&lt;/p&gt;" style="verticalAlign=top;align=left;overflow=fill;html=1;whiteSpace=wrap;fillColor=none;fontSize=8;" vertex="1" parent="1">
          <mxGeometry x="350" y="230" width="160" height="150" as="geometry" />
        </mxCell>
        <mxCell id="8Muu9q0Q0DCxU8LPVgdl-45" value="&lt;p style=&quot;margin: 4px 0px 0px; text-align: center; font-size: 8px;&quot;&gt;&lt;b&gt;Device&lt;/b&gt;&lt;/p&gt;&lt;hr style=&quot;border-style: solid; font-size: 8px;&quot;&gt;&lt;p style=&quot;margin: 0px 0px 0px 4px; font-size: 8px;&quot;&gt;&lt;font style=&quot;font-size: 8px;&quot;&gt;+ deviceName: string&lt;/font&gt;&lt;/p&gt;&lt;p style=&quot;margin: 0px 0px 0px 4px; font-size: 8px;&quot;&gt;&lt;font style=&quot;font-size: 8px;&quot;&gt;+ powerOn: false&lt;/font&gt;&lt;span style=&quot;background-color: initial;&quot;&gt;&amp;nbsp;&lt;/span&gt;&lt;/p&gt;&lt;hr style=&quot;border-style: solid; font-size: 8px;&quot;&gt;&lt;p style=&quot;margin: 0px 0px 0px 4px; font-size: 8px;&quot;&gt;&lt;font style=&quot;font-size: 8px;&quot;&gt;+ Device(deviceName)&lt;br&gt;+ on(): boolean&lt;/font&gt;&lt;/p&gt;&lt;p style=&quot;margin: 0px 0px 0px 4px; font-size: 8px;&quot;&gt;&lt;font style=&quot;font-size: 8px;&quot;&gt;+ off(): boolean&lt;/font&gt;&lt;/p&gt;&lt;p style=&quot;margin: 0px 0px 0px 4px; font-size: 8px;&quot;&gt;&lt;font style=&quot;font-size: 8px;&quot;&gt;&lt;br&gt;&lt;/font&gt;&lt;/p&gt;" style="verticalAlign=top;align=left;overflow=fill;html=1;whiteSpace=wrap;fillColor=none;fontSize=8;" vertex="1" parent="1">
          <mxGeometry x="350" y="470" width="160" height="90" as="geometry" />
        </mxCell>
        <mxCell id="8Muu9q0Q0DCxU8LPVgdl-51" value="&lt;p style=&quot;margin: 4px 0px 0px; text-align: center; font-size: 8px;&quot;&gt;&lt;b style=&quot;font-size: 8px;&quot;&gt;Jalousie&lt;/b&gt;&lt;/p&gt;&lt;hr style=&quot;border-style: solid; font-size: 8px;&quot;&gt;&lt;p style=&quot;margin: 0px 0px 0px 4px; font-size: 8px;&quot;&gt;- name: string&lt;br&gt;+ isOn: boolean&lt;br&gt;&lt;/p&gt;&lt;hr style=&quot;border-style: solid; font-size: 8px;&quot;&gt;&lt;p style=&quot;margin: 0px 0px 0px 4px; font-size: 8px;&quot;&gt;+ Jalousie(name)&lt;/p&gt;&lt;p style=&quot;margin: 0px 0px 0px 4px; font-size: 8px;&quot;&gt;+ setNameJalousie(name: string): void&lt;/p&gt;&lt;p style=&quot;margin: 0px 0px 0px 4px; font-size: 8px;&quot;&gt;+ getNameJalousie(): string&lt;br&gt;&lt;/p&gt;" style="verticalAlign=top;align=left;overflow=fill;html=1;whiteSpace=wrap;fillColor=none;fontSize=8;" vertex="1" parent="1">
          <mxGeometry x="350" y="700" width="160" height="90" as="geometry" />
        </mxCell>
        <mxCell id="8Muu9q0Q0DCxU8LPVgdl-52" value="&lt;p style=&quot;margin: 4px 0px 0px; text-align: center; font-size: 8px;&quot;&gt;&lt;b&gt;TV&lt;/b&gt;&lt;/p&gt;&lt;hr style=&quot;border-style: solid; font-size: 8px;&quot;&gt;&lt;p style=&quot;margin: 0px 0px 0px 4px; font-size: 8px;&quot;&gt;- name: string&lt;/p&gt;&lt;p style=&quot;margin: 0px 0px 0px 4px; font-size: 8px;&quot;&gt;+ isOn: boolean&lt;br&gt;&lt;/p&gt;&lt;hr style=&quot;border-style: solid; font-size: 8px;&quot;&gt;&lt;p style=&quot;margin: 0px 0px 0px 4px; font-size: 8px;&quot;&gt;+ TV(name)&lt;/p&gt;&lt;p style=&quot;margin: 0px 0px 0px 4px; font-size: 8px;&quot;&gt;+ setNameTV(name: string): void&lt;/p&gt;&lt;p style=&quot;margin: 0px 0px 0px 4px; font-size: 8px;&quot;&gt;+ getNameTV(): string&lt;br&gt;&lt;/p&gt;" style="verticalAlign=top;align=left;overflow=fill;html=1;whiteSpace=wrap;fillColor=none;fontSize=8;" vertex="1" parent="1">
          <mxGeometry x="550" y="700" width="160" height="90" as="geometry" />
        </mxCell>
        <mxCell id="8Muu9q0Q0DCxU8LPVgdl-53" value="&lt;p style=&quot;margin: 4px 0px 0px; text-align: center; font-size: 8px;&quot;&gt;&lt;b style=&quot;font-size: 8px;&quot;&gt;Lamp&lt;/b&gt;&lt;/p&gt;&lt;hr style=&quot;border-style: solid; font-size: 8px;&quot;&gt;&lt;p style=&quot;margin: 0px 0px 0px 4px; font-size: 8px;&quot;&gt;- name: string&lt;br&gt;+ isOn: boolean&lt;/p&gt;&lt;hr style=&quot;border-style: solid; font-size: 8px;&quot;&gt;&lt;p style=&quot;margin: 0px 0px 0px 4px; font-size: 8px;&quot;&gt;+ Lamp(string)&lt;br&gt;+ setNameLamp(name: string): void&lt;/p&gt;&lt;p style=&quot;margin: 0px 0px 0px 4px; font-size: 8px;&quot;&gt;+ getNameLamp(): string&lt;/p&gt;" style="verticalAlign=top;align=left;overflow=fill;html=1;whiteSpace=wrap;fillColor=none;fontSize=8;" vertex="1" parent="1">
          <mxGeometry x="150" y="700" width="160" height="90" as="geometry" />
        </mxCell>
        <mxCell id="8Muu9q0Q0DCxU8LPVgdl-50" value="Extends" style="endArrow=block;endSize=16;endFill=0;html=1;rounded=0;entryX=0.5;entryY=1;entryDx=0;entryDy=0;exitX=0.5;exitY=0;exitDx=0;exitDy=0;" edge="1" parent="1" source="8Muu9q0Q0DCxU8LPVgdl-51" target="8Muu9q0Q0DCxU8LPVgdl-45">
          <mxGeometry x="-0.0909" width="160" relative="1" as="geometry">
            <mxPoint x="430" y="680" as="sourcePoint" />
            <mxPoint x="420" y="740" as="targetPoint" />
            <mxPoint as="offset" />
          </mxGeometry>
        </mxCell>
        <mxCell id="8Muu9q0Q0DCxU8LPVgdl-60" value="" style="endArrow=diamondThin;endFill=0;endSize=24;html=1;rounded=0;entryX=0.5;entryY=1;entryDx=0;entryDy=0;exitX=0.5;exitY=0;exitDx=0;exitDy=0;" edge="1" parent="1" source="8Muu9q0Q0DCxU8LPVgdl-45" target="8Muu9q0Q0DCxU8LPVgdl-43">
          <mxGeometry width="160" relative="1" as="geometry">
            <mxPoint x="280" y="450" as="sourcePoint" />
            <mxPoint x="440" y="450" as="targetPoint" />
          </mxGeometry>
        </mxCell>
        <mxCell id="8Muu9q0Q0DCxU8LPVgdl-67" value="&lt;p style=&quot;margin: 4px 0px 0px; text-align: center; font-size: 8px;&quot;&gt;&lt;b&gt;ControlSystem&lt;/b&gt;&lt;/p&gt;&lt;hr style=&quot;border-style: solid; font-size: 8px;&quot;&gt;&lt;p style=&quot;margin: 0px 0px 0px 4px; font-size: 8px;&quot;&gt;- name: string&lt;/p&gt;&lt;hr style=&quot;border-style: solid; font-size: 8px;&quot;&gt;&lt;p style=&quot;margin: 0px 0px 0px 4px; font-size: 8px;&quot;&gt;+ method(): Type&lt;/p&gt;" style="verticalAlign=top;align=left;overflow=fill;html=1;whiteSpace=wrap;fillColor=none;fontSize=8;" vertex="1" parent="1">
          <mxGeometry x="610" y="245" width="160" height="90" as="geometry" />
        </mxCell>
        <mxCell id="8Muu9q0Q0DCxU8LPVgdl-68" value="&lt;p style=&quot;margin: 4px 0px 0px; text-align: center; font-size: 9px;&quot;&gt;&lt;b style=&quot;font-size: 9px;&quot;&gt;AlarmSystem&lt;/b&gt;&lt;/p&gt;&lt;hr style=&quot;border-style: solid; font-size: 9px;&quot;&gt;&lt;p style=&quot;margin: 0px 0px 0px 4px; font-size: 9px;&quot;&gt;- name: string&lt;/p&gt;&lt;hr style=&quot;border-style: solid; font-size: 9px;&quot;&gt;&lt;p style=&quot;margin: 0px 0px 0px 4px; font-size: 9px;&quot;&gt;+ method(): Type&lt;/p&gt;" style="verticalAlign=top;align=left;overflow=fill;html=1;whiteSpace=wrap;fillColor=none;fontSize=9;" vertex="1" parent="1">
          <mxGeometry x="610" y="400" width="160" height="90" as="geometry" />
        </mxCell>
        <mxCell id="8Muu9q0Q0DCxU8LPVgdl-71" value="Extends" style="endArrow=block;endSize=16;endFill=0;html=1;rounded=0;exitX=0.5;exitY=1;exitDx=0;exitDy=0;entryX=1;entryY=0.5;entryDx=0;entryDy=0;edgeStyle=orthogonalEdgeStyle;" edge="1" parent="1" source="8Muu9q0Q0DCxU8LPVgdl-68" target="8Muu9q0Q0DCxU8LPVgdl-45">
          <mxGeometry width="160" relative="1" as="geometry">
            <mxPoint x="590" y="570" as="sourcePoint" />
            <mxPoint x="750" y="570" as="targetPoint" />
          </mxGeometry>
        </mxCell>
        <mxCell id="8Muu9q0Q0DCxU8LPVgdl-73" value="&lt;p style=&quot;margin: 4px 0px 0px; text-align: center; font-size: 9px;&quot;&gt;&lt;b style=&quot;font-size: 9px;&quot;&gt;Garage&lt;/b&gt;&lt;/p&gt;&lt;hr style=&quot;border-style: solid; font-size: 9px;&quot;&gt;&lt;p style=&quot;margin: 0px 0px 0px 4px; font-size: 9px;&quot;&gt;- name: string&lt;/p&gt;&lt;hr style=&quot;border-style: solid; font-size: 9px;&quot;&gt;&lt;p style=&quot;margin: 0px 0px 0px 4px; font-size: 9px;&quot;&gt;+ Garage(name: string)&lt;br style=&quot;font-size: 9px;&quot;&gt;+ getName&lt;span style=&quot;background-color: initial;&quot;&gt;Garage&lt;/span&gt;&lt;span style=&quot;background-color: initial;&quot;&gt;(): string&lt;/span&gt;&lt;/p&gt;&lt;p style=&quot;margin: 0px 0px 0px 4px; font-size: 9px;&quot;&gt;+ setName&lt;span style=&quot;background-color: initial;&quot;&gt;Garage&lt;/span&gt;&lt;span style=&quot;background-color: initial;&quot;&gt;(name: string): void&lt;/span&gt;&lt;/p&gt;&lt;p style=&quot;margin: 0px 0px 0px 4px; font-size: 9px;&quot;&gt;&lt;br style=&quot;font-size: 9px;&quot;&gt;&lt;/p&gt;" style="verticalAlign=top;align=left;overflow=fill;html=1;whiteSpace=wrap;fillColor=none;fontSize=9;" vertex="1" parent="1">
          <mxGeometry x="100" y="245" width="160" height="85" as="geometry" />
        </mxCell>
        <mxCell id="8Muu9q0Q0DCxU8LPVgdl-74" value="" style="endArrow=diamondThin;endFill=0;endSize=24;html=1;rounded=0;exitX=1;exitY=0.266;exitDx=0;exitDy=0;entryX=0;entryY=0.25;entryDx=0;entryDy=0;exitPerimeter=0;" edge="1" parent="1" source="8Muu9q0Q0DCxU8LPVgdl-73" target="8Muu9q0Q0DCxU8LPVgdl-43">
          <mxGeometry width="160" relative="1" as="geometry">
            <mxPoint x="220" y="310" as="sourcePoint" />
            <mxPoint x="380" y="310" as="targetPoint" />
          </mxGeometry>
        </mxCell>
        <mxCell id="8Muu9q0Q0DCxU8LPVgdl-75" value="&lt;p style=&quot;margin:0px;margin-top:4px;text-align:center;&quot;&gt;&lt;b&gt;RollerGarageDoor&lt;/b&gt;&lt;br&gt;&lt;/p&gt;&lt;hr size=&quot;1&quot; style=&quot;border-style:solid;&quot;&gt;&lt;p style=&quot;margin:0px;margin-left:4px;&quot;&gt;+ isOpen: boolean&lt;/p&gt;&lt;hr size=&quot;1&quot; style=&quot;border-style:solid;&quot;&gt;&lt;p style=&quot;margin:0px;margin-left:4px;&quot;&gt;+ open(): void&lt;/p&gt;&lt;p style=&quot;margin:0px;margin-left:4px;&quot;&gt;+ close(): void&lt;/p&gt;" style="verticalAlign=top;align=left;overflow=fill;html=1;whiteSpace=wrap;fillColor=none;" vertex="1" parent="1">
          <mxGeometry x="100" y="400" width="160" height="90" as="geometry" />
        </mxCell>
        <mxCell id="8Muu9q0Q0DCxU8LPVgdl-79" value="" style="endArrow=diamondThin;endFill=1;endSize=24;html=1;rounded=0;exitX=0.5;exitY=0;exitDx=0;exitDy=0;entryX=0.5;entryY=1;entryDx=0;entryDy=0;" edge="1" parent="1" source="8Muu9q0Q0DCxU8LPVgdl-75" target="8Muu9q0Q0DCxU8LPVgdl-73">
          <mxGeometry width="160" relative="1" as="geometry">
            <mxPoint x="220" y="350" as="sourcePoint" />
            <mxPoint x="380" y="350" as="targetPoint" />
          </mxGeometry>
        </mxCell>
        <mxCell id="8Muu9q0Q0DCxU8LPVgdl-82" value="Extends" style="endArrow=block;endSize=16;endFill=0;html=1;rounded=0;exitX=0.5;exitY=1;exitDx=0;exitDy=0;entryX=0;entryY=0.5;entryDx=0;entryDy=0;edgeStyle=orthogonalEdgeStyle;" edge="1" parent="1" source="8Muu9q0Q0DCxU8LPVgdl-75" target="8Muu9q0Q0DCxU8LPVgdl-45">
          <mxGeometry width="160" relative="1" as="geometry">
            <mxPoint x="180" y="540" as="sourcePoint" />
            <mxPoint x="340" y="540" as="targetPoint" />
          </mxGeometry>
        </mxCell>
        <mxCell id="8Muu9q0Q0DCxU8LPVgdl-87" value="Extends" style="endArrow=block;endSize=16;endFill=0;html=1;rounded=0;exitX=0.5;exitY=0;exitDx=0;exitDy=0;entryX=0.5;entryY=1;entryDx=0;entryDy=0;edgeStyle=orthogonalEdgeStyle;fontColor=none;noLabel=1;" edge="1" parent="1" source="8Muu9q0Q0DCxU8LPVgdl-52" target="8Muu9q0Q0DCxU8LPVgdl-45">
          <mxGeometry width="160" relative="1" as="geometry">
            <mxPoint x="390" y="680" as="sourcePoint" />
            <mxPoint x="550" y="680" as="targetPoint" />
          </mxGeometry>
        </mxCell>
        <mxCell id="8Muu9q0Q0DCxU8LPVgdl-88" value="Extends" style="endArrow=block;endSize=16;endFill=0;html=1;rounded=0;exitX=0.5;exitY=0;exitDx=0;exitDy=0;entryX=0.5;entryY=1;entryDx=0;entryDy=0;edgeStyle=orthogonalEdgeStyle;fontColor=none;noLabel=1;" edge="1" parent="1" source="8Muu9q0Q0DCxU8LPVgdl-53" target="8Muu9q0Q0DCxU8LPVgdl-45">
          <mxGeometry width="160" relative="1" as="geometry">
            <mxPoint x="400" y="690" as="sourcePoint" />
            <mxPoint x="560" y="690" as="targetPoint" />
          </mxGeometry>
        </mxCell>
        <mxCell id="8Muu9q0Q0DCxU8LPVgdl-89" value="Use" style="endArrow=open;endSize=12;dashed=1;html=1;rounded=0;exitX=0.5;exitY=0;exitDx=0;exitDy=0;entryX=0.5;entryY=1;entryDx=0;entryDy=0;" edge="1" parent="1" source="8Muu9q0Q0DCxU8LPVgdl-68" target="8Muu9q0Q0DCxU8LPVgdl-67">
          <mxGeometry width="160" relative="1" as="geometry">
            <mxPoint x="420" y="390" as="sourcePoint" />
            <mxPoint x="580" y="390" as="targetPoint" />
          </mxGeometry>
        </mxCell>
        <mxCell id="8Muu9q0Q0DCxU8LPVgdl-90" value="" style="endArrow=diamondThin;endFill=1;endSize=24;html=1;rounded=0;exitX=0;exitY=0.25;exitDx=0;exitDy=0;entryX=1;entryY=0.25;entryDx=0;entryDy=0;" edge="1" parent="1" source="8Muu9q0Q0DCxU8LPVgdl-67" target="8Muu9q0Q0DCxU8LPVgdl-43">
          <mxGeometry width="160" relative="1" as="geometry">
            <mxPoint x="370" y="390" as="sourcePoint" />
            <mxPoint x="530" y="390" as="targetPoint" />
          </mxGeometry>
        </mxCell>
        <mxCell id="8Muu9q0Q0DCxU8LPVgdl-91" value="&lt;p style=&quot;margin:0px;margin-top:4px;text-align:center;&quot;&gt;&lt;b&gt;Door&lt;/b&gt;&lt;/p&gt;&lt;hr size=&quot;1&quot; style=&quot;border-style:solid;&quot;&gt;&lt;p style=&quot;margin:0px;margin-left:4px;&quot;&gt;+ field: Type&lt;/p&gt;&lt;hr size=&quot;1&quot; style=&quot;border-style:solid;&quot;&gt;&lt;p style=&quot;margin:0px;margin-left:4px;&quot;&gt;+ method(): Type&lt;/p&gt;" style="verticalAlign=top;align=left;overflow=fill;html=1;whiteSpace=wrap;fillColor=none;" vertex="1" parent="1">
          <mxGeometry x="350" y="70" width="160" height="90" as="geometry" />
        </mxCell>
        <mxCell id="8Muu9q0Q0DCxU8LPVgdl-92" value="" style="endArrow=diamondThin;endFill=1;endSize=24;html=1;rounded=0;exitX=0.5;exitY=1;exitDx=0;exitDy=0;entryX=0.5;entryY=0;entryDx=0;entryDy=0;" edge="1" parent="1" source="8Muu9q0Q0DCxU8LPVgdl-91" target="8Muu9q0Q0DCxU8LPVgdl-43">
          <mxGeometry width="160" relative="1" as="geometry">
            <mxPoint x="340" y="260" as="sourcePoint" />
            <mxPoint x="500" y="260" as="targetPoint" />
          </mxGeometry>
        </mxCell>
        <mxCell id="8Muu9q0Q0DCxU8LPVgdl-93" value="" style="ellipse;html=1;shape=endState;fillColor=#000000;strokeColor=#ff0000;" vertex="1" parent="1">
          <mxGeometry x="480" y="130" width="30" height="30" as="geometry" />
        </mxCell>
      </root>
    </mxGraphModel>
  </diagram>
</mxfile>
